<svg width="50" height="50" viewBox="0 0 50 50" fill="none" xmlns="http://www.w3.org/2000/svg">
<g clip-path="url(#clip0_44_27)">
<path d="M25 0C20.0555 0 15.222 1.46622 11.1108 4.21326C6.99953 6.9603 3.79521 10.8648 1.90302 15.4329C0.0108322 20.0011 -0.484251 25.0277 0.480379 29.8773C1.44501 34.7268 3.82603 39.1814 7.32234 42.6777C10.8187 46.174 15.2732 48.555 20.1228 49.5196C24.9723 50.4843 29.9989 49.9892 34.5671 48.097C39.1352 46.2048 43.0397 43.0005 45.7867 38.8893C48.5338 34.778 50 29.9445 50 25C49.9928 18.3718 47.3566 12.0171 42.6698 7.33025C37.9829 2.64339 31.6282 0.00716892 25 0ZM25 45.8333C20.8796 45.8333 16.8517 44.6115 13.4256 42.3223C9.99961 40.0331 7.32935 36.7794 5.75252 32.9726C4.1757 29.1658 3.76313 24.9769 4.56698 20.9356C5.37084 16.8943 7.35503 13.1822 10.2686 10.2686C13.1822 7.35502 16.8944 5.37083 20.9356 4.56697C24.9769 3.76311 29.1658 4.17568 32.9726 5.75251C36.7794 7.32934 40.0331 9.9996 42.3223 13.4256C44.6115 16.8516 45.8333 20.8796 45.8333 25C45.8273 30.5235 43.6304 35.819 39.7247 39.7247C35.819 43.6304 30.5235 45.8273 25 45.8333Z" fill="#E67E22"/>
<path d="M26.4938 10.5478C25.2924 10.3289 24.0576 10.3767 22.8767 10.6879C21.6959 10.9991 20.5978 11.5659 19.6603 12.3484C18.7227 13.1309 17.9686 14.1099 17.4514 15.2161C16.9341 16.3223 16.6662 17.5287 16.6667 18.7499C16.6667 19.3024 16.8862 19.8323 17.2769 20.223C17.6676 20.6137 18.1975 20.8332 18.7501 20.8332C19.3026 20.8332 19.8325 20.6137 20.2232 20.223C20.6139 19.8323 20.8334 19.3024 20.8334 18.7499C20.8329 18.1369 20.9676 17.5314 21.228 16.9765C21.4883 16.4216 21.8679 15.9309 22.3397 15.5395C22.8115 15.1482 23.3638 14.8657 23.9572 14.7123C24.5507 14.5589 25.1707 14.5383 25.773 14.652C26.596 14.8117 27.3527 15.2132 27.9464 15.8051C28.5402 16.397 28.944 17.1524 29.1063 17.9749C29.2703 18.8382 29.1571 19.7313 28.7829 20.5264C28.4087 21.3216 27.7927 21.978 27.023 22.402C25.7484 23.1404 24.6951 24.2072 23.9728 25.4911C23.2506 26.7751 22.8859 28.2292 22.9167 29.702V31.2499C22.9167 31.8024 23.1362 32.3323 23.5269 32.723C23.9176 33.1137 24.4475 33.3332 25.0001 33.3332C25.5526 33.3332 26.0825 33.1137 26.4732 32.723C26.8639 32.3323 27.0834 31.8024 27.0834 31.2499V29.702C27.0573 28.977 27.2226 28.2579 27.5627 27.6172C27.9029 26.9764 28.4058 26.4366 29.0209 26.052C30.5303 25.223 31.7458 23.9467 32.5003 22.3987C33.2547 20.8506 33.511 19.1069 33.234 17.4072C32.957 15.7076 32.1602 14.1355 30.9532 12.9072C29.7462 11.6788 28.1884 10.8546 26.4938 10.5478Z" fill="#E67E22"/>
<path d="M27.0834 37.5001C27.0834 36.3495 26.1507 35.4167 25.0001 35.4167C23.8495 35.4167 22.9167 36.3495 22.9167 37.5001C22.9167 38.6507 23.8495 39.5834 25.0001 39.5834C26.1507 39.5834 27.0834 38.6507 27.0834 37.5001Z" fill="#E67E22"/>
</g>
<defs>
<clipPath id="clip0_44_27">
<rect width="50" height="50" fill="white"/>
</clipPath>
</defs>
</svg>
